<?xml version="1.0" standalone="no"?>
<!DOCTYPE svg PUBLIC "-//W3C//DTD SVG 20010904//EN"
 "http://www.w3.org/TR/2001/REC-SVG-20010904/DTD/svg10.dtd">
<svg version="1.0" xmlns="http://www.w3.org/2000/svg"
 width="22.000000pt" height="22.000000pt" viewBox="0 0 22.000000 22.000000"
 preserveAspectRatio="xMidYMid meet">

<g transform="translate(0.000000,22.000000) scale(0.100000,-0.100000)"
fill="#000000" stroke="none">
<path d="M66 205 c-3 -8 -14 -15 -24 -15 -17 0 -19 -7 -14 -77 6 -110 10 -115
85 -111 l62 3 3 70 c2 38 8 75 13 82 13 15 3 33 -17 33 -8 0 -17 7 -20 15 -4
10 -20 15 -44 15 -24 0 -40 -5 -44 -15z m74 -5 c0 -5 -13 -10 -30 -10 -16 0
-30 5 -30 10 0 6 14 10 30 10 17 0 30 -4 30 -10z m45 -30 c-8 -13 -142 -13
-150 0 -4 6 23 10 75 10 52 0 79 -4 75 -10z m-15 -90 l0 -70 -60 0 -60 0 0 70
0 70 60 0 60 0 0 -70z"/>
<path d="M70 91 c0 -28 5 -51 10 -51 13 0 13 87 0 95 -6 4 -10 -13 -10 -44z"/>
<path d="M100 85 c0 -25 5 -45 10 -45 6 0 10 20 10 45 0 25 -4 45 -10 45 -5 0
-10 -20 -10 -45z"/>
<path d="M130 85 c0 -25 5 -45 10 -45 6 0 10 20 10 45 0 25 -4 45 -10 45 -5 0
-10 -20 -10 -45z"/>
</g>
</svg>
